<svg width="82" height="38" viewBox="0 0 82 38" fill="none" xmlns="http://www.w3.org/2000/svg">
<path d="M79.6551 0.620667L48.5194 0.620677C48.0544 0.620677 47.6511 0.942025 47.5473 1.39526L44.4251 15.0289C44.2416 15.8302 45.052 16.4969 45.8029 16.1624L54.5616 12.2607C54.8089 12.1506 55.0008 11.9447 55.0932 11.6902L56.2168 8.59613C56.3586 8.20575 56.7275 7.94412 57.1428 7.93939L69.0737 7.80362C69.7677 7.79572 70.2573 8.48163 70.0243 9.13545L67.1708 17.1439C67.0292 17.5411 66.6531 17.8063 66.2314 17.8063H56.3478C55.9256 17.8063 55.5492 18.0722 55.408 18.4702L52.8247 25.7535C52.5945 26.4025 53.0758 27.084 53.7645 27.084H71.0107C71.4334 27.084 71.8101 26.8175 71.9509 26.419L80.5953 1.95002C80.8245 1.30118 80.3432 0.620667 79.6551 0.620667Z" fill="white" stroke="white" stroke-width="1.24137"/>
<path d="M45.6687 36.6207H37.2662C36.8143 36.6207 36.4188 36.3167 36.3026 35.88L33.4286 25.0807C33.3022 24.6058 33.5407 24.1096 33.9905 23.9116L51.9321 16.0138C52.7328 15.6613 53.5669 16.4373 53.2731 17.2613L46.6079 35.9583C46.4664 36.3555 46.0903 36.6207 45.6687 36.6207Z" fill="white" stroke="white" stroke-width="1.24137"/>
<path fill-rule="evenodd" clip-rule="evenodd" d="M12.6995 0.693542C13.1609 0.693569 13.5619 1.01045 13.6692 1.45917L18.3772 21.1701C18.6199 22.1862 20.063 22.1928 20.3147 21.1789L25.2122 1.45038C25.3226 1.00597 25.722 0.693745 26.18 0.693542H35.0012C35.4578 0.693575 35.8561 1.00389 35.968 1.44647L40.0833 17.7551C40.2022 18.2266 39.9638 18.7151 39.5188 18.9113L33.6028 21.5187C33.0433 21.7653 32.3958 21.4551 32.2376 20.8644L31.4583 17.9543C31.1859 16.9379 29.7287 16.9819 29.5178 18.0129L28.4261 23.3537C28.3614 23.6693 28.1482 23.9339 27.8538 24.0646L11.5589 31.2971C11.0278 31.5328 10.4082 31.2665 10.2141 30.7189L0.0578866 2.02362C-0.171642 1.37473 0.309995 0.693542 0.998316 0.693542H12.6995Z" fill="white"/>
<path d="M12.6995 0.693542L12.6995 0.0728552H12.6995V0.693542ZM13.6692 1.45917L14.2729 1.31497L14.2729 1.31482L13.6692 1.45917ZM18.3772 21.1701L18.9809 21.0259L18.9809 21.0259L18.3772 21.1701ZM20.3147 21.1789L20.9171 21.3285L20.9171 21.3284L20.3147 21.1789ZM25.2122 1.45038L24.6098 1.30067L24.6098 1.30084L25.2122 1.45038ZM26.18 0.693542V0.0728552L26.1797 0.0728553L26.18 0.693542ZM35.0012 0.693542L35.0013 0.0728552H35.0012V0.693542ZM35.968 1.44647L36.5699 1.29461L36.5698 1.29429L35.968 1.44647ZM40.0833 17.7551L40.6851 17.6033L40.6851 17.6032L40.0833 17.7551ZM39.5188 18.9113L39.7691 19.4793L39.7692 19.4792L39.5188 18.9113ZM33.6028 21.5187L33.8531 22.0867L33.8531 22.0867L33.6028 21.5187ZM32.2376 20.8644L31.638 21.025L31.638 21.025L32.2376 20.8644ZM31.4583 17.9543L32.0578 17.7937L32.0578 17.7936L31.4583 17.9543ZM29.5178 18.0129L28.9097 17.8885L28.9097 17.8886L29.5178 18.0129ZM28.4261 23.3537L29.0341 23.4783L29.0342 23.478L28.4261 23.3537ZM27.8538 24.0646L28.1056 24.632L28.1056 24.6319L27.8538 24.0646ZM11.5589 31.2971L11.8107 31.8644L11.8107 31.8644L11.5589 31.2971ZM10.2141 30.7189L9.62902 30.926L9.6291 30.9263L10.2141 30.7189ZM0.0578866 2.02362L-0.527271 2.23061L-0.527233 2.23071L0.0578866 2.02362ZM12.6995 0.693542L12.6995 1.31423C12.8733 1.31424 13.0249 1.43374 13.0655 1.60352L13.6692 1.45917L14.2729 1.31482C14.0989 0.587175 13.4485 0.0728989 12.6995 0.0728552L12.6995 0.693542ZM13.6692 1.45917L13.0655 1.60336L17.7735 21.3143L18.3772 21.1701L18.9809 21.0259L14.2729 1.31497L13.6692 1.45917ZM18.3772 21.1701L17.7735 21.3143C18.1671 22.9625 20.5087 22.9736 20.9171 21.3285L20.3147 21.1789L19.7123 21.0293C19.6173 21.4119 19.0726 21.4098 18.9809 21.0259L18.3772 21.1701ZM20.3147 21.1789L20.9171 21.3284L25.8146 1.59992L25.2122 1.45038L24.6098 1.30084L19.7123 21.0294L20.3147 21.1789ZM25.2122 1.45038L25.8145 1.60009C25.8562 1.43248 26.0072 1.31431 26.1802 1.31423L26.18 0.693542L26.1797 0.0728553C25.4369 0.0731831 24.7891 0.579458 24.6098 1.30067L25.2122 1.45038ZM26.18 0.693542V1.31423H35.0012V0.693542V0.0728552H26.18V0.693542ZM35.0012 0.693542L35.0012 1.31423C35.1734 1.31424 35.324 1.43142 35.3663 1.59866L35.968 1.44647L36.5698 1.29429C36.3882 0.576369 35.7422 0.0729077 35.0013 0.0728552L35.0012 0.693542ZM35.968 1.44647L35.3662 1.59833L39.4815 17.9069L40.0833 17.7551L40.6851 17.6032L36.5699 1.29461L35.968 1.44647ZM40.0833 17.7551L39.4814 17.9069C39.5264 18.085 39.4363 18.2694 39.2684 18.3434L39.5188 18.9113L39.7692 19.4792C40.4913 19.1609 40.878 18.3682 40.6851 17.6033L40.0833 17.7551ZM39.5188 18.9113L39.2685 18.3433L33.3525 20.9508L33.6028 21.5187L33.8531 22.0867L39.7691 19.4793L39.5188 18.9113ZM33.6028 21.5187L33.3525 20.9507C33.1411 21.0439 32.8968 20.9267 32.8371 20.7039L32.2376 20.8644L31.638 21.025C31.8947 21.9835 32.9455 22.4866 33.8531 22.0867L33.6028 21.5187ZM32.2376 20.8644L32.8371 20.7039L32.0578 17.7937L31.4583 17.9543L30.8587 18.1148L31.638 21.025L32.2376 20.8644ZM31.4583 17.9543L32.0578 17.7936C31.6158 16.144 29.2517 16.2164 28.9097 17.8885L29.5178 18.0129L30.1259 18.1372C30.2057 17.7474 30.7561 17.7318 30.8587 18.1149L31.4583 17.9543ZM29.5178 18.0129L28.9097 17.8886L27.8179 23.2294L28.4261 23.3537L29.0342 23.478L30.126 18.1372L29.5178 18.0129ZM28.4261 23.3537L27.818 23.2291C27.7936 23.348 27.7134 23.4479 27.6019 23.4973L27.8538 24.0646L28.1056 24.6319C28.5831 24.42 28.9291 23.9906 29.0341 23.4783L28.4261 23.3537ZM27.8538 24.0646L27.602 23.4973L11.3071 30.7297L11.5589 31.2971L11.8107 31.8644L28.1056 24.632L27.8538 24.0646ZM11.5589 31.2971L11.3071 30.7297C11.1062 30.8189 10.8723 30.718 10.7992 30.5116L10.2141 30.7189L9.6291 30.9263C9.94409 31.8151 10.9493 32.2466 11.8107 31.8644L11.5589 31.2971ZM10.2141 30.7189L10.7993 30.5118L0.643006 1.81653L0.0578866 2.02362L-0.527233 2.23071L9.62902 30.926L10.2141 30.7189ZM0.0578866 2.02362L0.643044 1.81663C0.556406 1.57171 0.738368 1.31423 0.998316 1.31423V0.693542V0.0728552C-0.118379 0.0728552 -0.899691 1.17776 -0.527271 2.23061L0.0578866 2.02362ZM0.998316 0.693542V1.31423H12.6995V0.693542V0.0728552H0.998316V0.693542Z" fill="white"/>
<path d="M26.0199 27.4518L12.1066 33.6541C11.6339 33.8648 11.401 34.4021 11.5702 34.8911L11.9362 35.9483C12.0752 36.3499 12.4535 36.6193 12.8785 36.6193H24.8289C25.297 36.6193 25.7022 36.2936 25.8028 35.8364L27.3999 28.5768C27.5757 27.7777 26.7673 27.1186 26.0199 27.4518Z" fill="white" stroke="white" stroke-width="1.24137"/>
</svg>
